<svg xmlns="http://www.w3.org/2000/svg" style="display: none;">
	<symbol id="icon-closeBtn" xmlns="http://www.w3.org/2000/svg" viewBox="0 0 24 24" stroke-width="2"
		stroke-linecap="round" stroke-linejoin="round" class="lucide lucide-x">
		>
		<path d="M18 6 6 18" />
		<path d="m6 6 12 12" />
	</symbol>
	<symbol id="icon-pencil" xmlns="http://www.w3.org/2000/svg" viewBox="0 0 24 24" stroke-width="2"
		stroke-linecap="round" stroke-linejoin="round" class="lucide lucide-pencil">
		>
		<path d="M17 3a2.85 2.83 0 1 1 4 4L7.5 20.5 2 22l1.5-5.5Z" />
		<path d="m15 5 4 4" />
	</symbol>
	<symbol id="icon-trash" xmlns="http://www.w3.org/2000/svg" viewBox="0 0 24 24" stroke-width="2"
		stroke-linecap="round" stroke-linejoin="round" class="lucide lucide-trash">
		>
		<path d="M3 6h18" />
		<path d="M19 6v14c0 1-1 2-2 2H7c-1 0-2-1-2-2V6" />
		<path d="M8 6V4c0-1 1-2 2-2h4c1 0 2 1 2 2v2" />
	</symbol>
</svg>
